<svg data-v-423bf9ae="" xmlns="http://www.w3.org/2000/svg" viewBox="0 0 168.22606842590886 60" class="font"><!----><!----><defs data-v-423bf9ae=""><linearGradient data-v-423bf9ae="" gradientTransform="rotate(25)" id="9d4c28cf-0e7f-4627-8bdc-fd48a9c60bbc" x1="0%" y1="0%" x2="100%" y2="0%"><stop data-v-423bf9ae="" offset="0%" style="stop-color: rgb(54, 22, 172); stop-opacity: 1;"></stop><stop data-v-423bf9ae="" offset="100%" style="stop-color: rgb(224, 155, 237); stop-opacity: 1;"></stop></linearGradient></defs><g data-v-423bf9ae="" id="a94d58f2-9a10-4787-921e-dcbbbcaa54d2" fill="url(#9d4c28cf-0e7f-4627-8bdc-fd48a9c60bbc)" transform="matrix(4.709576222757963,0,0,4.709576222757963,-2.4960779197688368,-19.733124166002824)"><path d="M10.56 8.74L5.57 8.74L5.57 10.02L8.92 10.02C8.68 11.65 7.32 12.78 5.57 12.78C3.54 12.78 2.09 11.26 2.09 9.14C2.09 7.04 3.54 5.52 5.57 5.52C7.20 5.52 8.41 6.48 8.82 7.91L10.42 7.91C9.97 5.73 8.01 4.19 5.56 4.19C2.65 4.19 0.53 6.27 0.53 9.14C0.53 12.04 2.65 14.13 5.56 14.13C8.51 14.13 10.57 12.04 10.57 9.14C10.57 9.02 10.56 8.85 10.56 8.74ZM17.44 7.11L17.44 8.11C16.84 7.41 15.96 6.99 14.94 6.99C12.99 6.99 11.56 8.48 11.56 10.56C11.56 12.63 12.99 14.13 14.94 14.13C15.96 14.13 16.84 13.71 17.44 13.01L17.44 14L18.87 14L18.87 7.11ZM15.23 12.88C13.96 12.88 13.03 11.91 13.03 10.56C13.03 9.21 13.96 8.23 15.23 8.23C16.52 8.23 17.44 9.21 17.44 10.56C17.44 11.91 16.52 12.88 15.23 12.88ZM26.11 7.11L26.11 8.09C25.51 7.41 24.63 6.99 23.59 6.99C21.64 6.99 20.23 8.43 20.23 10.40C20.23 12.39 21.64 13.83 23.59 13.83C24.63 13.83 25.51 13.41 26.11 12.73L26.11 13.64C26.11 14.87 25.19 15.78 23.93 15.78C23.00 15.78 22.13 15.23 21.90 14.49L20.55 14.48C20.85 15.90 22.29 16.93 23.98 16.93C26.05 16.93 27.54 15.51 27.54 13.55L27.54 7.11ZM23.90 12.73C22.62 12.73 21.70 11.76 21.70 10.42C21.70 9.06 22.62 8.09 23.90 8.09C25.19 8.09 26.11 9.06 26.11 10.42C26.11 11.76 25.19 12.73 23.90 12.73ZM36.25 10.57C36.23 8.48 34.71 6.99 32.58 6.99C30.45 6.99 28.90 8.48 28.90 10.56C28.90 12.63 30.45 14.13 32.58 14.13C34.27 14.13 35.74 13.03 36.13 11.51L34.68 11.51C34.41 12.33 33.57 12.95 32.59 12.95C31.40 12.95 30.49 12.15 30.31 11.00L36.20 11.00C36.23 10.86 36.25 10.71 36.25 10.57ZM32.59 8.16C33.73 8.16 34.64 8.88 34.87 9.90L30.35 9.90C30.60 8.86 31.47 8.16 32.59 8.16Z"></path></g><!----><!----></svg>